<mxfile host="Electron" agent="Mozilla/5.0 (Windows NT 10.0; Win64; x64) AppleWebKit/537.36 (KHTML, like Gecko) draw.io/26.0.4 Chrome/128.0.6613.186 Electron/32.2.5 Safari/537.36" version="26.0.4">
  <diagram name="Page-1" id="TnEciFf0lUUz7qHPB_6e">
    <mxGraphModel dx="880" dy="532" grid="1" gridSize="10" guides="1" tooltips="1" connect="1" arrows="1" fold="1" page="1" pageScale="1" pageWidth="850" pageHeight="1100" math="0" shadow="0">
      <root>
        <mxCell id="0" />
        <mxCell id="1" parent="0" />
        <mxCell id="SuYyy2BMjK82ZU2Ccuik-1" value="m&lt;sub&gt;11&lt;/sub&gt;" style="ellipse;whiteSpace=wrap;html=1;aspect=fixed;" parent="1" vertex="1">
          <mxGeometry x="80" y="274" width="40" height="40" as="geometry" />
        </mxCell>
        <mxCell id="SuYyy2BMjK82ZU2Ccuik-2" value="m&lt;sub&gt;21&lt;/sub&gt;" style="ellipse;whiteSpace=wrap;html=1;aspect=fixed;" parent="1" vertex="1">
          <mxGeometry x="180" y="194" width="40" height="40" as="geometry" />
        </mxCell>
        <mxCell id="SuYyy2BMjK82ZU2Ccuik-3" value="m&lt;sub&gt;22&lt;/sub&gt;" style="ellipse;whiteSpace=wrap;html=1;aspect=fixed;" parent="1" vertex="1">
          <mxGeometry x="180" y="354" width="40" height="40" as="geometry" />
        </mxCell>
        <mxCell id="SuYyy2BMjK82ZU2Ccuik-4" value="m&lt;sub&gt;31&lt;/sub&gt;" style="ellipse;whiteSpace=wrap;html=1;aspect=fixed;" parent="1" vertex="1">
          <mxGeometry x="340" y="194" width="40" height="40" as="geometry" />
        </mxCell>
        <mxCell id="SuYyy2BMjK82ZU2Ccuik-5" value="m&lt;sub&gt;32&lt;/sub&gt;" style="ellipse;whiteSpace=wrap;html=1;aspect=fixed;" parent="1" vertex="1">
          <mxGeometry x="340" y="354" width="40" height="40" as="geometry" />
        </mxCell>
        <mxCell id="SuYyy2BMjK82ZU2Ccuik-6" value="" style="endArrow=none;html=1;rounded=0;" parent="1" source="SuYyy2BMjK82ZU2Ccuik-1" target="SuYyy2BMjK82ZU2Ccuik-2" edge="1">
          <mxGeometry width="50" height="50" relative="1" as="geometry">
            <mxPoint x="200" y="334" as="sourcePoint" />
            <mxPoint x="250" y="284" as="targetPoint" />
          </mxGeometry>
        </mxCell>
        <mxCell id="SuYyy2BMjK82ZU2Ccuik-7" value="" style="endArrow=none;html=1;rounded=0;" parent="1" source="SuYyy2BMjK82ZU2Ccuik-1" target="SuYyy2BMjK82ZU2Ccuik-3" edge="1">
          <mxGeometry width="50" height="50" relative="1" as="geometry">
            <mxPoint x="210" y="344" as="sourcePoint" />
            <mxPoint x="260" y="294" as="targetPoint" />
          </mxGeometry>
        </mxCell>
        <mxCell id="SuYyy2BMjK82ZU2Ccuik-8" value="" style="endArrow=none;html=1;rounded=0;" parent="1" source="SuYyy2BMjK82ZU2Ccuik-3" target="SuYyy2BMjK82ZU2Ccuik-2" edge="1">
          <mxGeometry width="50" height="50" relative="1" as="geometry">
            <mxPoint x="220" y="354" as="sourcePoint" />
            <mxPoint x="270" y="304" as="targetPoint" />
          </mxGeometry>
        </mxCell>
        <mxCell id="SuYyy2BMjK82ZU2Ccuik-9" value="" style="endArrow=none;html=1;rounded=0;" parent="1" source="SuYyy2BMjK82ZU2Ccuik-2" target="SuYyy2BMjK82ZU2Ccuik-4" edge="1">
          <mxGeometry width="50" height="50" relative="1" as="geometry">
            <mxPoint x="230" y="364" as="sourcePoint" />
            <mxPoint x="280" y="314" as="targetPoint" />
          </mxGeometry>
        </mxCell>
        <mxCell id="SuYyy2BMjK82ZU2Ccuik-10" value="" style="endArrow=none;html=1;rounded=0;" parent="1" source="SuYyy2BMjK82ZU2Ccuik-2" target="SuYyy2BMjK82ZU2Ccuik-5" edge="1">
          <mxGeometry width="50" height="50" relative="1" as="geometry">
            <mxPoint x="240" y="304" as="sourcePoint" />
            <mxPoint x="290" y="254" as="targetPoint" />
          </mxGeometry>
        </mxCell>
        <mxCell id="SuYyy2BMjK82ZU2Ccuik-11" value="" style="endArrow=none;html=1;rounded=0;" parent="1" source="SuYyy2BMjK82ZU2Ccuik-5" target="SuYyy2BMjK82ZU2Ccuik-4" edge="1">
          <mxGeometry width="50" height="50" relative="1" as="geometry">
            <mxPoint x="270" y="384" as="sourcePoint" />
            <mxPoint x="320" y="334" as="targetPoint" />
          </mxGeometry>
        </mxCell>
        <mxCell id="SuYyy2BMjK82ZU2Ccuik-12" value="" style="endArrow=none;html=1;rounded=0;" parent="1" source="SuYyy2BMjK82ZU2Ccuik-3" target="SuYyy2BMjK82ZU2Ccuik-5" edge="1">
          <mxGeometry width="50" height="50" relative="1" as="geometry">
            <mxPoint x="260" y="394" as="sourcePoint" />
            <mxPoint x="310" y="344" as="targetPoint" />
          </mxGeometry>
        </mxCell>
        <mxCell id="SuYyy2BMjK82ZU2Ccuik-13" value="" style="endArrow=none;html=1;rounded=0;" parent="1" source="SuYyy2BMjK82ZU2Ccuik-3" target="SuYyy2BMjK82ZU2Ccuik-4" edge="1">
          <mxGeometry width="50" height="50" relative="1" as="geometry">
            <mxPoint x="250" y="314" as="sourcePoint" />
            <mxPoint x="300" y="264" as="targetPoint" />
          </mxGeometry>
        </mxCell>
        <mxCell id="RzMLYw8InrZ1g5e0zGv9-1" value="1" style="ellipse;whiteSpace=wrap;html=1;aspect=fixed;" vertex="1" parent="1">
          <mxGeometry x="85" y="110" width="30" height="30" as="geometry" />
        </mxCell>
        <mxCell id="RzMLYw8InrZ1g5e0zGv9-2" value="2" style="ellipse;whiteSpace=wrap;html=1;aspect=fixed;" vertex="1" parent="1">
          <mxGeometry x="170" y="110" width="30" height="30" as="geometry" />
        </mxCell>
        <mxCell id="RzMLYw8InrZ1g5e0zGv9-3" value="3" style="ellipse;whiteSpace=wrap;html=1;aspect=fixed;" vertex="1" parent="1">
          <mxGeometry x="250" y="110" width="30" height="30" as="geometry" />
        </mxCell>
        <mxCell id="RzMLYw8InrZ1g5e0zGv9-4" value="4" style="ellipse;whiteSpace=wrap;html=1;aspect=fixed;" vertex="1" parent="1">
          <mxGeometry x="330" y="110" width="30" height="30" as="geometry" />
        </mxCell>
        <mxCell id="RzMLYw8InrZ1g5e0zGv9-5" value="" style="endArrow=none;html=1;rounded=0;" edge="1" parent="1" source="SuYyy2BMjK82ZU2Ccuik-1" target="RzMLYw8InrZ1g5e0zGv9-1">
          <mxGeometry width="50" height="50" relative="1" as="geometry">
            <mxPoint x="126" y="292" as="sourcePoint" />
            <mxPoint x="194" y="236" as="targetPoint" />
          </mxGeometry>
        </mxCell>
        <mxCell id="RzMLYw8InrZ1g5e0zGv9-6" value="" style="endArrow=none;html=1;rounded=0;" edge="1" parent="1" source="SuYyy2BMjK82ZU2Ccuik-4" target="RzMLYw8InrZ1g5e0zGv9-3">
          <mxGeometry width="50" height="50" relative="1" as="geometry">
            <mxPoint x="110" y="284" as="sourcePoint" />
            <mxPoint x="110" y="150" as="targetPoint" />
          </mxGeometry>
        </mxCell>
        <mxCell id="RzMLYw8InrZ1g5e0zGv9-7" value="" style="endArrow=none;html=1;rounded=0;" edge="1" parent="1" source="SuYyy2BMjK82ZU2Ccuik-4" target="RzMLYw8InrZ1g5e0zGv9-4">
          <mxGeometry width="50" height="50" relative="1" as="geometry">
            <mxPoint x="450" y="170" as="sourcePoint" />
            <mxPoint x="286" y="145" as="targetPoint" />
          </mxGeometry>
        </mxCell>
        <mxCell id="RzMLYw8InrZ1g5e0zGv9-8" value="" style="endArrow=none;html=1;rounded=0;" edge="1" parent="1" source="RzMLYw8InrZ1g5e0zGv9-4" target="RzMLYw8InrZ1g5e0zGv9-3">
          <mxGeometry width="50" height="50" relative="1" as="geometry">
            <mxPoint x="355" y="210" as="sourcePoint" />
            <mxPoint x="286" y="145" as="targetPoint" />
          </mxGeometry>
        </mxCell>
        <mxCell id="RzMLYw8InrZ1g5e0zGv9-9" value="" style="endArrow=none;html=1;rounded=0;" edge="1" parent="1" source="RzMLYw8InrZ1g5e0zGv9-3" target="RzMLYw8InrZ1g5e0zGv9-2">
          <mxGeometry width="50" height="50" relative="1" as="geometry">
            <mxPoint x="260" y="70" as="sourcePoint" />
            <mxPoint x="290" y="135" as="targetPoint" />
          </mxGeometry>
        </mxCell>
        <mxCell id="RzMLYw8InrZ1g5e0zGv9-10" value="" style="endArrow=none;html=1;rounded=0;" edge="1" parent="1" source="RzMLYw8InrZ1g5e0zGv9-2" target="RzMLYw8InrZ1g5e0zGv9-1">
          <mxGeometry width="50" height="50" relative="1" as="geometry">
            <mxPoint x="170" y="160" as="sourcePoint" />
            <mxPoint x="210" y="135" as="targetPoint" />
          </mxGeometry>
        </mxCell>
        <mxCell id="RzMLYw8InrZ1g5e0zGv9-11" value="" style="endArrow=none;html=1;rounded=0;edgeStyle=orthogonalEdgeStyle;curved=1;" edge="1" parent="1" source="RzMLYw8InrZ1g5e0zGv9-3" target="RzMLYw8InrZ1g5e0zGv9-1">
          <mxGeometry width="50" height="50" relative="1" as="geometry">
            <mxPoint x="250" y="90" as="sourcePoint" />
            <mxPoint x="125" y="135" as="targetPoint" />
            <Array as="points">
              <mxPoint x="265" y="80" />
              <mxPoint x="100" y="80" />
            </Array>
          </mxGeometry>
        </mxCell>
        <mxCell id="RzMLYw8InrZ1g5e0zGv9-12" value="" style="endArrow=none;html=1;rounded=0;edgeStyle=orthogonalEdgeStyle;curved=1;" edge="1" parent="1" source="RzMLYw8InrZ1g5e0zGv9-4" target="RzMLYw8InrZ1g5e0zGv9-1">
          <mxGeometry width="50" height="50" relative="1" as="geometry">
            <mxPoint x="275" y="120" as="sourcePoint" />
            <mxPoint x="110" y="120" as="targetPoint" />
            <Array as="points">
              <mxPoint x="345" y="60" />
              <mxPoint x="100" y="60" />
            </Array>
          </mxGeometry>
        </mxCell>
        <mxCell id="RzMLYw8InrZ1g5e0zGv9-13" value="" style="endArrow=none;html=1;rounded=0;edgeStyle=orthogonalEdgeStyle;curved=1;" edge="1" parent="1" source="RzMLYw8InrZ1g5e0zGv9-4" target="RzMLYw8InrZ1g5e0zGv9-2">
          <mxGeometry width="50" height="50" relative="1" as="geometry">
            <mxPoint x="380" y="90" as="sourcePoint" />
            <mxPoint x="110" y="120" as="targetPoint" />
            <Array as="points">
              <mxPoint x="345" y="90" />
              <mxPoint x="180" y="90" />
            </Array>
          </mxGeometry>
        </mxCell>
      </root>
    </mxGraphModel>
  </diagram>
</mxfile>
